<?xml version="1.0" standalone="no"?>
<!DOCTYPE svg PUBLIC "-//W3C//DTD SVG 20010904//EN"
 "http://www.w3.org/TR/2001/REC-SVG-20010904/DTD/svg10.dtd">
<svg version="1.0" xmlns="http://www.w3.org/2000/svg"
 width="1024.000000pt" height="1024.000000pt" viewBox="0 0 1024.000000 1024.000000"
 preserveAspectRatio="xMidYMid meet">
<metadata>
Created by potrace 1.11, written by Peter Selinger 2001-2013
</metadata>
<g transform="translate(0.000000,1024.000000) scale(0.100000,-0.100000)"
fill="#000000" stroke="none">
<path d="M1803 10215 c-328 -70 -576 -179 -873 -382 -14 -10 -65 -51 -115 -92
-460 -383 -737 -904 -805 -1511 -4 -41 -8 -1447 -8 -3125 -1 -3072 0 -3132 32
-3285 2 -14 10 -50 16 -81 60 -312 229 -665 448 -939 135 -168 346 -362 502
-460 30 -19 57 -37 60 -40 18 -19 236 -130 340 -173 78 -32 273 -96 353 -114
40 -10 6680 -11 6722 -1 311 70 623 215 873 405 106 81 119 92 216 188 192
189 326 375 447 620 61 124 149 363 164 442 2 15 7 39 10 53 4 14 13 60 20
102 8 43 18 95 22 115 3 21 8 1431 9 3133 2 3097 1 3180 -29 3330 -50 248 -92
377 -189 580 -147 311 -361 578 -633 792 -55 43 -106 83 -112 89 -38 30 -208
126 -315 178 -122 59 -302 124 -428 155 -191 47 2 45 -3410 45 l-3205 0 -112
-24z"/>
</g>
</svg>
